<!--?xml version="1.0" encoding="utf-8"?-->
<!-- Generator: Adobe Illustrator 19.1.1, SVG Export Plug-In . SVG Version: 6.00 Build 0)  -->
<svg version="1.1" id="_x31_0" xmlns="http://www.w3.org/2000/svg" xmlns:xlink="http://www.w3.org/1999/xlink" x="0px" y="0px" viewBox="0 0 512 512" style="width: 32px; height: 32px; opacity: 1;" xml:space="preserve">
<style type="text/css">
	.st0{fill:#374149;}
</style>
<g>
	<path class="st0" d="M182.661,133.945c14.785-14.223,15.011-37.926,0.453-52.371l-68.851-68.962
		c-16.93-16.816-44.356-16.816-61.286,0L41.465,24.238l125.395,125.394C171.825,144.441,177.357,139.022,182.661,133.945z" style="fill: rgb(75, 75, 75);"></path>
	<path class="st0" d="M345.865,360.578c-1.691,1.355-3.274,2.598-4.625,3.726c-19.301,14.898-58.242-15.125-118.286-75.281
		c-60.156-60.161-90.293-98.985-75.394-118.286c1.129-1.355,2.371-2.934,3.836-4.629L25.438,40.151L11.895,53.694
		c-9,9.031-13.343,29.164-11.426,56.516c0.074,1.094,0.125,2.16,0.219,3.273c0.027,0.344,0.074,0.699,0.105,1.043
		C4.853,160.784,26.27,226.46,74.114,295.261c17.883,25.856,39.398,52.039,64.981,77.622
		c136.004,136,289.051,157.222,319.074,127.199l13.484-13.375l0.059-0.054l0,0l0.113-0.114L345.865,360.578z" style="fill: rgb(75, 75, 75);"></path>
	<path class="st0" d="M499.365,397.71l-68.961-68.848c-14.562-14.558-38.149-14.332-52.371,0.454
		c-5.035,5.258-10.402,10.625-15.551,15.668c-0.007,0.004-0.015,0.011-0.023,0.019l0,0c-0.039,0.035-0.078,0.074-0.114,0.114
		L487.74,470.511l11.625-11.512C516.181,442.07,516.181,414.64,499.365,397.71z" style="fill: rgb(75, 75, 75);"></path>
</g>
</svg>
